<svg id="Capa_1" data-name="Capa 1" xmlns="http://www.w3.org/2000/svg" viewBox="0 0 75.41 26.5"><defs><style>.cls-1{fill:#f5f5f5;}.cls-2{fill:#ffc107;}</style></defs><title>logo softy</title><path class="cls-1" d="M22.23,16.48a7.66,7.66,0,0,0,3.18,1.31,1.36,1.36,0,0,0,.88-.28.8.8,0,0,0,.36-.66.65.65,0,0,0-.3-.6c-.2-.13-.93-.48-2.21-1a5.37,5.37,0,0,1-2.22-1.61,3.82,3.82,0,0,1-.68-2.3,4.27,4.27,0,0,1,1.35-3.25A4.83,4.83,0,0,1,26,6.77,11,11,0,0,1,31,8.4l-1.65,3.07a6.47,6.47,0,0,0-3.15-1.18c-.71,0-1.06.28-1.06.86a.91.91,0,0,0,.39.72,5.93,5.93,0,0,0,1.42.67,7.1,7.1,0,0,1,2.82,1.63,3.41,3.41,0,0,1,.87,2.4A4.53,4.53,0,0,1,29.29,20a4.92,4.92,0,0,1-3.55,1.34,9.54,9.54,0,0,1-5-1.65Z"/><path class="cls-1" d="M38.41,6.77a5.33,5.33,0,0,1,4.47,2,8.69,8.69,0,0,1,1.53,5.46,8,8,0,0,1-1.59,5.3,5.47,5.47,0,0,1-4.41,1.87,5.27,5.27,0,0,1-4.29-1.91,8,8,0,0,1-1.59-5.26,8.75,8.75,0,0,1,1.52-5.46A5.16,5.16,0,0,1,38.41,6.77Zm0,10.75a1.35,1.35,0,0,0,1.26-.78,6.17,6.17,0,0,0,.42-2.69,6.1,6.1,0,0,0-.41-2.64,1.41,1.41,0,0,0-2.48,0,5.8,5.8,0,0,0-.43,2.69C36.8,16.37,37.34,17.52,38.44,17.52Z"/><path class="cls-1" d="M47.29,7.25V4.09a3.81,3.81,0,0,1,1.23-3A5,5,0,0,1,52,0h1.71V4.25H52.59a1,1,0,0,0-.74.34,1.25,1.25,0,0,0-.29.88V7.25h2.11v3.59H51.56V20.89H47.29v-10h-1.5V7.25Z"/><path class="cls-1" d="M56,3.62h4.29V7.25h1.67v3.59h-1.7V20.89H56V10.81H54.33V7.25H56Z"/><path class="cls-1" d="M62.76,7.25H67l1.08,3.54c.38,1.25.7,2.47,1,3.66h.07c.23-1.13.41-1.95.56-2.44l1.43-4.76h4.3L69.62,26.5H65.34l1.74-5.79Z"/><polygon class="cls-2" points="4.07 13.66 4.07 4.07 12.62 4.07 12.62 6.86 16.69 3.62 16.69 0.03 16.69 0 0.02 0 0.02 0.03 0 0.03 0 16.89 4.07 13.66"/><polygon class="cls-2" points="12.62 12.85 12.62 22.43 4.07 22.43 4.07 19.65 0 22.88 0 26.34 0.02 26.34 0.02 26.5 16.69 26.5 16.69 26.34 16.69 22.43 16.69 9.61 12.62 12.85"/></svg>