<?xml version="1.0" encoding="utf-8"?>
<!-- Generator: Adobe Illustrator 23.0.0, SVG Export Plug-In . SVG Version: 6.00 Build 0)  -->
<svg version="1.1" id="objects" xmlns="http://www.w3.org/2000/svg" xmlns:xlink="http://www.w3.org/1999/xlink" x="0px" y="0px"
	 viewBox="0 0 198.2 119.8" style="enable-background:new 0 0 198.2 119.8;" xml:space="preserve">
<style type="text/css">
	.st0{fill:#C1DDF7;}
	.st1{fill:#71ADDB;}
	.st2{fill:#214A81;}
	.st3{fill:#FFFFFF;}
	.st4{fill:#84B4FE;}
	.st5{fill:#FFD474;}
	.st6{fill:#D7E8F7;}
</style>
<g>
	<g>
		<path class="st0" d="M147.9,95.9H26.2c-5.1,0-9.3-4.2-9.3-9.3v-4.9h140.3v4.9C157.2,91.8,153.1,95.9,147.9,95.9z"/>
		<rect x="73" y="95.9" class="st1" width="28.8" height="12.4"/>
		<path class="st2" d="M157.2,82H16.9V8.6c0-4.7,3.8-8.6,8.6-8.6h123.1c4.7,0,8.6,3.8,8.6,8.6V82z"/>
		<rect x="22.6" y="5.9" class="st3" width="129.7" height="71"/>
		<path class="st3" d="M90.2,88.2c0,1.7-1.4,3.2-3.2,3.2c-1.7,0-3.2-1.4-3.2-3.2c0-1.7,1.4-3.2,3.2-3.2C88.8,85,90.2,86.4,90.2,88.2
			z"/>
		<path class="st0" d="M114.1,112.5H60.1l0,0c0-2.3,1.9-4.2,4.2-4.2h45.6C112.2,108.3,114.1,110.2,114.1,112.5L114.1,112.5z"/>
	</g>
	<g>
		<rect x="36.5" y="18.5" class="st4" width="45" height="45"/>
		<path class="st5" d="M76.4,38c0,3.8-3.1,6.9-6.9,6.9c-3.8,0-6.9-3.1-6.9-6.9c0-3.8,3.1-6.9,6.9-6.9C73.3,31,76.4,34.1,76.4,38z"/>
		<polygon class="st6" points="60.7,49.4 68.7,39.8 81.5,51.4 81.5,63.5 60.7,63.5 		"/>
		<polygon class="st2" points="36.5,49.2 45.6,35.3 74.5,63.5 36.5,63.5 		"/>
	</g>
	<path class="st6" d="M134.7,30.5H89.3c-0.6,0-1.2-0.5-1.2-1.2v-0.1c0-0.7,0.5-1.2,1.2-1.2h45.5c0.7,0,1.2,0.5,1.2,1.2v0.1
		C135.9,30,135.4,30.5,134.7,30.5z"/>
	<path class="st6" d="M121.8,43.4H89.3c-0.6,0-1.2-0.5-1.2-1.2v-0.1c0-0.7,0.5-1.2,1.2-1.2h32.5c0.7,0,1.2,0.5,1.2,1.2v0.1
		C122.9,42.8,122.4,43.4,121.8,43.4z"/>
	<path class="st6" d="M134.7,49.8H89.3c-0.6,0-1.2-0.5-1.2-1.2v-0.1c0-0.7,0.5-1.2,1.2-1.2h45.4c0.7,0,1.2,0.6,1.2,1.2l0,0
		C135.9,49.3,135.4,49.8,134.7,49.8z"/>
	<path class="st6" d="M101.2,56.2H89.3c-0.6,0-1.2-0.5-1.2-1.2v-0.1c0-0.7,0.5-1.2,1.2-1.2h11.9c0.7,0,1.2,0.5,1.2,1.2v0.1
		C102.3,55.7,101.8,56.2,101.2,56.2z"/>
	<path class="st6" d="M113,36.9H89.3c-0.6,0-1.2-0.5-1.2-1.2v-0.1c0-0.7,0.5-1.2,1.2-1.2H113c0.7,0,1.2,0.5,1.2,1.2v0.1
		C114.1,36.4,113.6,36.9,113,36.9z"/>
</g>
<g>
	<g>
		<g>
			<path class="st2" d="M30,55.9H4.4c-2.4,0-4.4,2-4.4,4.4v55.2c0,2.4,2,4.4,4.4,4.4H30c2.4,0,4.4-2,4.4-4.4V60.2
				C34.4,57.8,32.5,55.9,30,55.9z"/>
			<path class="st3" d="M16.4,117.3c-1.5,0-2.7-1.2-2.7-2.7c0-1.5,1.2-2.7,2.7-2.7s2.7,1.2,2.7,2.7C19,116.1,17.9,117.3,16.4,117.3z
				"/>
			<rect x="2.5" y="61.5" class="st3" width="29" height="48.1"/>
		</g>
	</g>
	<g>
		<rect x="7.2" y="66.1" class="st4" width="19.6" height="19.6"/>
		<circle class="st5" cx="21.6" cy="74.6" r="3"/>
		<polygon class="st6" points="17.7,79.6 21.2,75.4 26.8,80.5 26.8,85.8 17.7,85.8 		"/>
		<polygon class="st2" points="7.2,79.5 11.1,73.5 23.7,85.8 7.2,85.8 		"/>
	</g>
	<path class="st6" d="M16.6,92.1h-8c-0.7,0-1.2-0.5-1.2-1.2v-0.1c0-0.7,0.5-1.2,1.2-1.2h8c0.7,0,1.2,0.5,1.2,1.2v0.1
		C17.8,91.5,17.3,92.1,16.6,92.1z"/>
	<path class="st6" d="M16.6,103.4h-8c-0.7,0-1.2-0.5-1.2-1.2v-0.1c0-0.7,0.5-1.2,1.2-1.2h8c0.7,0,1.2,0.5,1.2,1.2v0.1
		C17.8,102.8,17.3,103.4,16.6,103.4z"/>
	<path class="st6" d="M26.2,97.7H8.6c-0.7,0-1.2-0.5-1.2-1.2v-0.1c0-0.7,0.5-1.2,1.2-1.2h17.6c0.7,0,1.2,0.5,1.2,1.2v0.1
		C27.4,97.2,26.9,97.7,26.2,97.7z"/>
</g>
<g>
	<g>
		<g>
			<path class="st2" d="M192.6,38.8h-46c-3.1,0-5.5,2.5-5.5,5.5v69.9c0,3.1,2.5,5.5,5.5,5.5h46c3.1,0,5.5-2.5,5.5-5.5V44.4
				C198.2,41.3,195.7,38.8,192.6,38.8z"/>
			<path class="st3" d="M168.8,116.7c-1.9,0-3.4-1.5-3.4-3.4c0-1.9,1.5-3.4,3.4-3.4c1.9,0,3.4,1.5,3.4,3.4
				C172.1,115.1,170.6,116.7,168.8,116.7z"/>
			<rect x="144.3" y="45.9" class="st3" width="50.2" height="61"/>
		</g>
	</g>
	<g>
		<rect x="151.8" y="52.7" class="st4" width="34.7" height="34.7"/>
		<path class="st5" d="M182.6,67.7c0,2.9-2.4,5.3-5.3,5.3c-2.9,0-5.3-2.4-5.3-5.3c0-2.9,2.4-5.3,5.3-5.3
			C180.2,62.4,182.6,64.8,182.6,67.7z"/>
		<polygon class="st6" points="170.4,76.5 176.6,69.1 186.5,78 186.5,87.4 170.4,87.4 		"/>
		<polygon class="st2" points="151.8,76.4 158.8,65.6 181.1,87.4 151.8,87.4 		"/>
	</g>
	<path class="st6" d="M161,94.3h-8c-0.7,0-1.2-0.5-1.2-1.2V93c0-0.7,0.5-1.2,1.2-1.2h8c0.7,0,1.2,0.5,1.2,1.2v0.1
		C162.2,93.8,161.7,94.3,161,94.3z"/>
	<path class="st6" d="M185.9,100h-33c-0.7,0-1.2-0.5-1.2-1.2v-0.1c0-0.7,0.5-1.2,1.2-1.2h33c0.6,0,1.2,0.5,1.2,1.2v0.1
		C187.1,99.4,186.6,100,185.9,100z"/>
</g>
</svg>
